<svg width="1440" height="2070" viewBox="0 0 1440 2070" fill="none" xmlns="http://www.w3.org/2000/svg">
<path d="M1215.48 442.767C1196.42 346.468 988.512 433.69 831.45 554.11C650.454 692.894 580.708 842.248 443.456 916.889C318.205 985.037 312.301 895.411 220.144 950.409C135.449 1000.96 0.178074 1160.34 -225.741 1613.13" stroke="url(#paint0_linear_2596_1112)" stroke-opacity="0.1" stroke-width="2" stroke-miterlimit="10"/>
<path d="M-213.11 1626.48C10.0537 1179.87 145.436 1018.21 231.376 964.203C295.069 924.239 318.938 951.846 368.307 950.157C392.938 949.88 423.38 940.296 456.898 922.267C566.689 863.276 633.213 759.329 751.314 646.879C781.418 618.148 812.309 591.472 843.351 567.4C1001.08 444.703 1206.81 349.775 1229.16 439.543" stroke="url(#paint1_linear_2596_1112)" stroke-opacity="0.1" stroke-width="2" stroke-miterlimit="10"/>
<path d="M-200.461 1639.75C19.947 1199.32 155.364 1035.46 242.369 978.138C306.324 936.008 331.688 960.303 381.188 956.699C406.428 955.3 436.829 945.41 470.075 927.783C578.27 870.403 644.684 771.852 763.178 660.175C793.291 631.747 824.067 605.151 855.011 580.814C1013.43 456.181 1216.95 353.176 1242.6 436.417" stroke="url(#paint2_linear_2596_1112)" stroke-opacity="0.1" stroke-width="2" stroke-miterlimit="10"/>
<path d="M-187.852 1652.97C29.7488 1218.81 165.278 1052.7 253.45 991.932C317.718 947.634 344.475 968.657 394.183 963.099C419.975 960.61 450.313 950.439 483.262 933.235C589.965 877.385 656.038 784.384 775.052 673.4C805.19 645.213 835.885 618.65 866.758 594.038C1025.84 467.274 1227.16 356.402 1256.1 433.117" stroke="url(#paint3_linear_2596_1112)" stroke-opacity="0.1" stroke-width="2" stroke-miterlimit="10"/>
<path d="M-175.242 1666.36C39.604 1238.28 175.141 1070.03 264.558 1005.75C329.061 959.359 357.339 977.014 407.23 969.463C433.593 965.877 463.922 955.397 496.627 938.57C601.837 884.248 667.646 796.753 787.232 686.396C817.332 658.548 847.88 632.091 878.605 607.261C1038.38 478.337 1237.49 359.61 1269.75 429.785" stroke="url(#paint4_linear_2596_1112)" stroke-opacity="0.1" stroke-width="2" stroke-miterlimit="10"/>
<path d="M-162.756 1679.72C49.4138 1257.68 185.09 1085.32 275.646 1019.45C340.285 972.37 370.184 985.128 420.204 975.776C447.125 971.074 477.444 960.283 509.895 943.852C613.61 891.054 679.104 809.097 799.082 699.516C829.167 671.935 859.611 645.53 890.225 620.465C1050.69 489.294 1247.6 362.759 1283.15 426.434" stroke="url(#paint5_linear_2596_1112)" stroke-opacity="0.1" stroke-width="2" stroke-miterlimit="10"/>
<path d="M-150.046 1692.96C59.242 1277.11 194.818 1104.63 286.702 1033.07C351.594 982.773 383.071 993.323 433.195 982.092C460.644 976.291 490.956 965.192 523.153 949.154C625.374 897.878 690.629 821.381 811.024 712.549C841.097 685.258 871.441 658.913 901.936 633.618C1063.1 500.272 1257.79 365.783 1296.63 422.999" stroke="url(#paint6_linear_2596_1112)" stroke-opacity="0.1" stroke-width="2" stroke-miterlimit="10"/>
<path d="M-137.464 1706.27C68.9928 1296.55 204.628 1121.84 297.78 1046.87C362.856 994.436 396.011 1001.29 446.186 988.351C474.141 981.452 504.459 970.03 536.412 954.36C637.113 904.645 702.129 833.649 822.967 725.491C851.084 700.349 881.094 673.924 913.648 646.66C1075.52 511.059 1267.98 368.848 1310.12 419.505" stroke="url(#paint7_linear_2596_1112)" stroke-opacity="0.1" stroke-width="2" stroke-miterlimit="10"/>
<path d="M-124.91 1719.58C78.8458 1315.88 214.41 1139.2 308.809 1060.47C374.092 1006.04 408.95 1009.17 459.202 994.466C487.663 986.459 518.004 974.724 549.719 959.457C648.925 911.259 713.65 845.739 834.956 738.32C863.196 713.305 893.128 686.969 925.431 659.562C1087.79 521.884 1278.15 371.736 1323.57 415.856" stroke="url(#paint8_linear_2596_1112)" stroke-opacity="0.1" stroke-width="2" stroke-miterlimit="10"/>
<path d="M-112.333 1732.83C88.6439 1335.21 224.188 1156.49 319.857 1074.11C385.322 1017.73 422.012 1016.96 472.084 1000.71C501.013 991.611 531.374 979.571 562.842 964.715C660.578 918.015 725.038 857.992 846.786 751.194C875.022 726.404 904.979 700.04 937.031 672.508C1100.26 532.361 1288.3 374.462 1337.02 412.08" stroke="url(#paint9_linear_2596_1112)" stroke-opacity="0.1" stroke-width="2" stroke-miterlimit="10"/>
<path d="M-99.8013 1746.14C98.3979 1354.53 233.947 1173.78 330.811 1087.7C396.457 1029.38 434.876 1024.75 484.972 1006.86C514.365 996.65 544.765 984.281 575.995 969.824C672.21 924.658 736.404 870.112 858.617 764.1C886.976 739.473 916.856 713.136 948.629 685.516C1112.55 543.02 1298.36 377.33 1350.41 408.386" stroke="url(#paint10_linear_2596_1112)" stroke-opacity="0.1" stroke-width="2" stroke-miterlimit="10"/>
<path d="M-87.284 1759.45C108.163 1373.84 243.743 1191.01 341.878 1101.16C407.73 1040.88 447.905 1032.33 497.922 1012.88C526.674 1001.69 556.117 990.076 589.236 974.803C683.955 931.13 747.881 882.101 870.535 776.771C898.966 752.325 928.794 725.996 960.367 698.226C1124.98 553.371 1308.57 379.854 1363.89 404.422" stroke="url(#paint11_linear_2596_1112)" stroke-opacity="0.1" stroke-width="2" stroke-miterlimit="10"/>
<path d="M-74.7832 1772.74C117.911 1393.17 253.343 1208.34 352.853 1114.62C418.91 1052.37 460.919 1039.79 510.83 1018.84C540.282 1006.48 569.805 994.482 602.408 979.725C695.628 937.62 759.263 894.032 882.382 789.376C910.885 765.129 940.687 738.784 971.93 710.941C1137.21 563.692 1318.62 382.342 1377.22 400.397" stroke="url(#paint12_linear_2596_1112)" stroke-opacity="0.1" stroke-width="2" stroke-miterlimit="10"/>
<path d="M-62.353 1786.07C127.617 1412.35 263.205 1225.45 363.808 1128.03C430.071 1063.85 473.913 1047.17 523.718 1024.74C553.897 1011.15 583.473 998.817 615.457 984.673C707.206 943.999 770.52 906.01 894.206 801.943C922.807 777.835 952.531 751.511 983.521 723.573C1149.49 573.856 1328.69 384.67 1390.58 396.206" stroke="url(#paint13_linear_2596_1112)" stroke-opacity="0.1" stroke-width="2" stroke-miterlimit="10"/>
<path d="M-49.8205 1799.28C137.322 1431.53 272.862 1242.66 374.762 1141.31C441.256 1075.17 486.907 1054.37 536.553 1030.53C567.458 1015.67 597.139 1003 628.684 989.314C718.883 950.185 781.978 917.643 905.999 814.329C935.905 789.182 965.646 763.017 995.107 735.936C1161.71 583.867 1338.8 386.79 1403.9 391.801" stroke="url(#paint14_linear_2596_1112)" stroke-opacity="0.1" stroke-width="2" stroke-miterlimit="10"/>
<path d="M-37.3904 1812.57C147.001 1450.71 282.7 1259.6 385.589 1154.61C452.313 1086.49 499.798 1061.51 549.414 1036.19C581.045 1020.06 610.779 1007.08 641.78 993.948C730.505 956.305 793.304 929.293 917.711 826.662C947.584 801.807 977.27 775.657 1006.58 748.375C1173.9 593.621 1348.73 388.813 1417.22 387.13" stroke="url(#paint15_linear_2596_1112)" stroke-opacity="0.1" stroke-width="2" stroke-miterlimit="10"/>
<path d="M-24.9875 1825.86C156.629 1469.84 292.508 1276.61 396.568 1167.67C463.471 1097.65 512.817 1068.38 562.196 1041.75C594.554 1024.32 624.339 1011.09 654.823 998.47C742.022 962.348 804.574 940.815 929.493 838.777C959.333 814.186 988.968 788.025 1018.13 760.526C1186.04 603.353 1358.71 390.577 1430.48 382.403" stroke="url(#paint16_linear_2596_1112)" stroke-opacity="0.1" stroke-width="2" stroke-miterlimit="10"/>
<path d="M-13.2823 1839.04C165.574 1487.8 301.401 1291.81 406.719 1178.54C473.92 1106.25 525.012 1072.62 574.218 1044.58C607.396 1025.66 637.148 1012.21 667.104 1000.08C752.777 965.31 815.008 949.313 940.362 847.57C970.159 823.154 999.741 796.89 1028.75 769.096C1197.26 608.831 1367.77 387.394 1442.8 372.609" stroke="url(#paint17_linear_2596_1112)" stroke-opacity="0.1" stroke-width="2" stroke-miterlimit="10"/>
<path d="M-1.67239 1852.23C174.32 1505.64 310.373 1306.83 416.819 1189.29C484.266 1114.76 537.106 1076.69 586.189 1047.26C620.007 1027.03 649.929 1013.14 679.308 1001.53C763.453 968.203 825.384 957.694 951.147 856.196C980.899 831.953 1010.43 805.578 1039.28 777.484C1208.4 614.053 1376.87 383.833 1455.03 362.42" stroke="url(#paint18_linear_2596_1112)" stroke-opacity="0.1" stroke-width="2" stroke-miterlimit="10"/>
<path d="M9.89108 1865.41C183.243 1523.4 319.317 1321.78 426.844 1199.82C494.589 1122.97 549.152 1080.4 598.113 1049.51C632.651 1027.74 662.587 1013.71 691.464 1002.6C774.056 970.706 835.685 965.761 961.876 864.582C991.584 840.524 1021.07 814.029 1049.76 785.625C1219.46 618.947 1385.67 379.937 1467.21 351.737" stroke="url(#paint19_linear_2596_1112)" stroke-opacity="0.1" stroke-width="2" stroke-miterlimit="10"/>
<path d="M21.4553 1878.56C192.035 1541.27 328.23 1336.85 436.761 1210.46C504.778 1131.32 561.04 1084.2 609.879 1051.9C645.136 1028.58 675.139 1014.33 703.465 1003.69C784.555 973.231 845.878 973.929 972.473 873.04C1002.14 849.145 1031.6 822.522 1060.13 793.818C1230.29 623.81 1394.46 376.046 1479.32 340.98" stroke="url(#paint20_linear_2596_1112)" stroke-opacity="0.1" stroke-width="2" stroke-miterlimit="10"/>
<path d="M32.9438 1891.77C305.273 1352.09 494.793 1141.89 621.848 1054.03C760.546 958.118 811.818 1017.13 983.245 881.403C1184.34 722.158 1388.51 378.985 1491.5 330.007" stroke="url(#paint21_linear_2596_1112)" stroke-opacity="0.1" stroke-width="2" stroke-miterlimit="10"/>
<defs>
<linearGradient id="paint0_linear_2596_1112" x1="499.456" y1="736.92" x2="656.729" y2="944.486" gradientUnits="userSpaceOnUse">
<stop stop-color="#155ADA"/>
<stop offset="1" stop-color="#0B743B"/>
</linearGradient>
<linearGradient id="paint1_linear_2596_1112" x1="512.486" y1="749.966" x2="669.773" y2="957.561" gradientUnits="userSpaceOnUse">
<stop stop-color="#155ADA"/>
<stop offset="1" stop-color="#0B743B"/>
</linearGradient>
<linearGradient id="paint2_linear_2596_1112" x1="525.406" y1="762.931" x2="682.741" y2="970.592" gradientUnits="userSpaceOnUse">
<stop stop-color="#155ADA"/>
<stop offset="1" stop-color="#0B743B"/>
</linearGradient>
<linearGradient id="paint3_linear_2596_1112" x1="538.339" y1="775.699" x2="695.77" y2="983.483" gradientUnits="userSpaceOnUse">
<stop stop-color="#155ADA"/>
<stop offset="1" stop-color="#0B743B"/>
</linearGradient>
<linearGradient id="paint4_linear_2596_1112" x1="551.35" y1="788.31" x2="708.987" y2="996.347" gradientUnits="userSpaceOnUse">
<stop stop-color="#155ADA"/>
<stop offset="1" stop-color="#0B743B"/>
</linearGradient>
<linearGradient id="paint5_linear_2596_1112" x1="564.176" y1="800.702" x2="722.121" y2="1009.11" gradientUnits="userSpaceOnUse">
<stop stop-color="#155ADA"/>
<stop offset="1" stop-color="#0B743B"/>
</linearGradient>
<linearGradient id="paint6_linear_2596_1112" x1="577.162" y1="812.869" x2="735.471" y2="1021.71" gradientUnits="userSpaceOnUse">
<stop stop-color="#155ADA"/>
<stop offset="1" stop-color="#0B743B"/>
</linearGradient>
<linearGradient id="paint7_linear_2596_1112" x1="590.084" y1="825.043" x2="748.767" y2="1034.33" gradientUnits="userSpaceOnUse">
<stop stop-color="#155ADA"/>
<stop offset="1" stop-color="#0B743B"/>
</linearGradient>
<linearGradient id="paint8_linear_2596_1112" x1="602.982" y1="836.811" x2="762.207" y2="1046.75" gradientUnits="userSpaceOnUse">
<stop stop-color="#155ADA"/>
<stop offset="1" stop-color="#0B743B"/>
</linearGradient>
<linearGradient id="paint9_linear_2596_1112" x1="615.89" y1="848.463" x2="775.687" y2="1059.08" gradientUnits="userSpaceOnUse">
<stop stop-color="#155ADA"/>
<stop offset="1" stop-color="#0B743B"/>
</linearGradient>
<linearGradient id="paint10_linear_2596_1112" x1="628.756" y1="859.814" x2="789.269" y2="1071.28" gradientUnits="userSpaceOnUse">
<stop stop-color="#155ADA"/>
<stop offset="1" stop-color="#0B743B"/>
</linearGradient>
<linearGradient id="paint11_linear_2596_1112" x1="641.66" y1="870.866" x2="803" y2="1083.31" gradientUnits="userSpaceOnUse">
<stop stop-color="#155ADA"/>
<stop offset="1" stop-color="#0B743B"/>
</linearGradient>
<linearGradient id="paint12_linear_2596_1112" x1="654.486" y1="881.641" x2="816.781" y2="1095.2" gradientUnits="userSpaceOnUse">
<stop stop-color="#155ADA"/>
<stop offset="1" stop-color="#0B743B"/>
</linearGradient>
<linearGradient id="paint13_linear_2596_1112" x1="667.295" y1="892.097" x2="830.678" y2="1106.94" gradientUnits="userSpaceOnUse">
<stop stop-color="#155ADA"/>
<stop offset="1" stop-color="#0B743B"/>
</linearGradient>
<linearGradient id="paint14_linear_2596_1112" x1="680.145" y1="902.053" x2="844.793" y2="1118.38" gradientUnits="userSpaceOnUse">
<stop stop-color="#155ADA"/>
<stop offset="1" stop-color="#0B743B"/>
</linearGradient>
<linearGradient id="paint15_linear_2596_1112" x1="692.947" y1="911.583" x2="859.057" y2="1129.62" gradientUnits="userSpaceOnUse">
<stop stop-color="#155ADA"/>
<stop offset="1" stop-color="#0B743B"/>
</linearGradient>
<linearGradient id="paint16_linear_2596_1112" x1="705.713" y1="920.6" x2="873.501" y2="1140.6" gradientUnits="userSpaceOnUse">
<stop stop-color="#155ADA"/>
<stop offset="1" stop-color="#0B743B"/>
</linearGradient>
<linearGradient id="paint17_linear_2596_1112" x1="717.861" y1="916.857" x2="892.609" y2="1144.92" gradientUnits="userSpaceOnUse">
<stop stop-color="#155ADA"/>
<stop offset="1" stop-color="#0B743B"/>
</linearGradient>
<linearGradient id="paint18_linear_2596_1112" x1="729.938" y1="911.928" x2="912.179" y2="1148.63" gradientUnits="userSpaceOnUse">
<stop stop-color="#155ADA"/>
<stop offset="1" stop-color="#0B743B"/>
</linearGradient>
<linearGradient id="paint19_linear_2596_1112" x1="741.977" y1="906.125" x2="932.118" y2="1151.88" gradientUnits="userSpaceOnUse">
<stop stop-color="#155ADA"/>
<stop offset="1" stop-color="#0B743B"/>
</linearGradient>
<linearGradient id="paint20_linear_2596_1112" x1="753.985" y1="899.877" x2="952.25" y2="1154.89" gradientUnits="userSpaceOnUse">
<stop stop-color="#155ADA"/>
<stop offset="1" stop-color="#0B743B"/>
</linearGradient>
<linearGradient id="paint21_linear_2596_1112" x1="765.999" y1="893.156" x2="972.636" y2="1157.66" gradientUnits="userSpaceOnUse">
<stop stop-color="#155ADA"/>
<stop offset="1" stop-color="#0B743B"/>
</linearGradient>
</defs>
</svg>
