<svg width="156" height="60" viewBox="0 0 156 60" fill="none" xmlns="http://www.w3.org/2000/svg">
<rect width="156" height="60" fill="#DBDBDB"/>
<path d="M34.2614 41.5V18.2273H39.8864V36.9318H49.5682V41.5H34.2614ZM72.8998 29.8636C72.8998 32.4242 72.4073 34.5947 71.4225 36.375C70.4377 38.1553 69.1043 39.5076 67.4225 40.4318C65.7483 41.3561 63.8695 41.8182 61.7861 41.8182C59.6952 41.8182 57.8127 41.3523 56.1384 40.4205C54.4642 39.4886 53.1346 38.1364 52.1498 36.3636C51.1725 34.5833 50.6839 32.4167 50.6839 29.8636C50.6839 27.303 51.1725 25.1326 52.1498 23.3523C53.1346 21.572 54.4642 20.2197 56.1384 19.2955C57.8127 18.3712 59.6952 17.9091 61.7861 17.9091C63.8695 17.9091 65.7483 18.3712 67.4225 19.2955C69.1043 20.2197 70.4377 21.572 71.4225 23.3523C72.4073 25.1326 72.8998 27.303 72.8998 29.8636ZM67.1498 29.8636C67.1498 28.3485 66.9339 27.0682 66.502 26.0227C66.0778 24.9773 65.4642 24.1856 64.6611 23.6477C63.8657 23.1098 62.9073 22.8409 61.7861 22.8409C60.6725 22.8409 59.7142 23.1098 58.9111 23.6477C58.1081 24.1856 57.4907 24.9773 57.0589 26.0227C56.6346 27.0682 56.4225 28.3485 56.4225 29.8636C56.4225 31.3788 56.6346 32.6591 57.0589 33.7045C57.4907 34.75 58.1081 35.5417 58.9111 36.0795C59.7142 36.6174 60.6725 36.8864 61.7861 36.8864C62.9073 36.8864 63.8657 36.6174 64.6611 36.0795C65.4642 35.5417 66.0778 34.75 66.502 33.7045C66.9339 32.6591 67.1498 31.3788 67.1498 29.8636ZM90.8166 25.8295C90.6878 25.3523 90.4984 24.9318 90.2484 24.5682C89.9984 24.197 89.6916 23.8826 89.328 23.625C88.9643 23.3674 88.5477 23.1742 88.078 23.0455C87.6083 22.9091 87.0931 22.8409 86.5325 22.8409C85.4037 22.8409 84.4264 23.1136 83.6007 23.6591C82.7825 24.2045 82.1499 25 81.703 26.0455C81.256 27.0833 81.0325 28.3447 81.0325 29.8295C81.0325 31.322 81.2484 32.5947 81.6802 33.6477C82.112 34.7008 82.737 35.5038 83.5552 36.0568C84.3734 36.6098 85.3658 36.8864 86.5325 36.8864C87.5628 36.8864 88.434 36.7197 89.1461 36.3864C89.8658 36.0455 90.4113 35.5644 90.7825 34.9432C91.1537 34.322 91.3393 33.5909 91.3393 32.75L92.3848 32.875H86.7257V28.7727H96.7598V31.8523C96.7598 33.9356 96.3166 35.7197 95.4302 37.2045C94.5514 38.6894 93.3393 39.8295 91.7939 40.625C90.256 41.4205 88.487 41.8182 86.487 41.8182C84.2673 41.8182 82.3166 41.3371 80.6348 40.375C78.953 39.4129 77.6423 38.0417 76.703 36.2614C75.7636 34.4735 75.2939 32.3523 75.2939 29.8977C75.2939 27.9886 75.578 26.2955 76.1461 24.8182C76.7143 23.3333 77.506 22.0758 78.5211 21.0455C79.5439 20.0152 80.7257 19.2348 82.0666 18.7045C83.4151 18.1742 84.8658 17.9091 86.4189 17.9091C87.7673 17.9091 89.0211 18.1023 90.1802 18.4886C91.3469 18.875 92.3772 19.4205 93.2711 20.125C94.1727 20.8295 94.9037 21.6667 95.4643 22.6364C96.0249 23.6061 96.3734 24.6705 96.5098 25.8295H90.8166ZM121.401 29.8636C121.401 32.4242 120.909 34.5947 119.924 36.375C118.939 38.1553 117.606 39.5076 115.924 40.4318C114.25 41.3561 112.371 41.8182 110.287 41.8182C108.196 41.8182 106.314 41.3523 104.64 40.4205C102.965 39.4886 101.636 38.1364 100.651 36.3636C99.6738 34.5833 99.1851 32.4167 99.1851 29.8636C99.1851 27.303 99.6738 25.1326 100.651 23.3523C101.636 21.572 102.965 20.2197 104.64 19.2955C106.314 18.3712 108.196 17.9091 110.287 17.9091C112.371 17.9091 114.25 18.3712 115.924 19.2955C117.606 20.2197 118.939 21.572 119.924 23.3523C120.909 25.1326 121.401 27.303 121.401 29.8636ZM115.651 29.8636C115.651 28.3485 115.435 27.0682 115.003 26.0227C114.579 24.9773 113.965 24.1856 113.162 23.6477C112.367 23.1098 111.409 22.8409 110.287 22.8409C109.174 22.8409 108.215 23.1098 107.412 23.6477C106.609 24.1856 105.992 24.9773 105.56 26.0227C105.136 27.0682 104.924 28.3485 104.924 29.8636C104.924 31.3788 105.136 32.6591 105.56 33.7045C105.992 34.75 106.609 35.5417 107.412 36.0795C108.215 36.6174 109.174 36.8864 110.287 36.8864C111.409 36.8864 112.367 36.6174 113.162 36.0795C113.965 35.5417 114.579 34.75 115.003 33.7045C115.435 32.6591 115.651 31.3788 115.651 29.8636Z" fill="black"/>
</svg>
